<svg xmlns="http://www.w3.org/2000/svg" viewBox="0 0 1200 700" role="img" aria-label="Vista previa">
  <defs>
    <linearGradient id="bg" x1="0" x2="1" y1="0" y2="1">
      <stop offset="0%" stop-color="#0b1120" />
      <stop offset="100%" stop-color="#111827" />
    </linearGradient>
    <linearGradient id="accent" x1="0" x2="1" y1="0" y2="1">
      <stop offset="0%" stop-color="#f97316" />
      <stop offset="100%" stop-color="#22c55e" />
    </linearGradient>
  </defs>
  <rect width="1200" height="700" rx="36" fill="url(#bg)" />
  <circle cx="950" cy="170" r="150" fill="#f97316" fill-opacity="0.18" />
  <circle cx="1050" cy="540" r="220" fill="#22c55e" fill-opacity="0.12" />
  <rect x="64" y="64" width="210" height="42" rx="21" fill="url(#accent)" />
  <text x="88" y="92" fill="#ffffff" font-family="Inter, Arial, sans-serif" font-size="22" font-weight="700">Demo visual</text>
  <rect x="64" y="154" width="520" height="286" rx="28" fill="#0f172a" fill-opacity="0.82" stroke="#ffffff" stroke-opacity="0.08" />
  <rect x="96" y="190" width="220" height="22" rx="11" fill="#1e293b" />
  <rect x="96" y="238" width="420" height="18" rx="9" fill="#1e293b" />
  <rect x="96" y="274" width="380" height="18" rx="9" fill="#1e293b" />
  <rect x="96" y="332" width="170" height="54" rx="15" fill="url(#accent)" />
  <text x="123" y="367" fill="#ffffff" font-family="Inter, Arial, sans-serif" font-size="18" font-weight="700">Quiero consultar</text>
  <rect x="635" y="154" width="500" height="386" rx="28" fill="#0f172a" fill-opacity="0.75" stroke="#ffffff" stroke-opacity="0.08" />
  <circle cx="885" cy="300" r="92" fill="url(#accent)" fill-opacity="0.9" />
  <path d="M865 300h40m-20-20v40" stroke="#ffffff" stroke-width="8" stroke-linecap="round" />
  <text x="688" y="474" fill="#cbd5e1" font-family="Inter, Arial, sans-serif" font-size="24">Imagen de reemplazo local</text>
</svg>
